<?xml version="1.0" encoding="UTF-8" standalone="no"?>
<!DOCTYPE svg PUBLIC "-//W3C//DTD SVG 1.1//EN" "http://www.w3.org/Graphics/SVG/1.1/DTD/svg11.dtd">
<svg width="100%" height="100%" viewBox="0 0 4671 1075" version="1.1" xmlns="http://www.w3.org/2000/svg" xmlns:xlink="http://www.w3.org/1999/xlink" xml:space="preserve" xmlns:serif="http://www.serif.com/" style="fill-rule:evenodd;clip-rule:evenodd;stroke-miterlimit:10;">
    <g transform="matrix(1,0,0,1,-5349.5546,-314.613)">
        <path d="M5591.939,932.516C5563.452,840.75 5611.814,693.741 5798.043,686.764C5987.156,679.064 6152.691,819.095 6152.691,1027.941C6152.691,1243.041 5985.472,1387.401 5752.568,1387.401C5520.625,1387.401 5349.555,1243.76 5349.555,1029.144C5349.555,882.615 5429.437,765.923 5562.277,713.2L5568.051,722.104C5486.941,780.601 5458.308,903.548 5458.308,1010.137C5458.308,1228.363 5583.423,1353.717 5751.365,1353.717C5923.155,1353.717 6043.937,1224.273 6043.937,1026.495C6043.937,860.961 5957.562,716.6 5792.988,720.449C5647.663,723.578 5583.423,839.309 5602.045,931.074L5591.939,932.516Z" style="fill:rgb(242,195,59);fill-rule:nonzero;"/>
        <path d="M6714.874,1298.584C6751.264,1341.14 6780.701,1364.564 6829.918,1365.074L6829.918,1373.874L6766.358,1373.874C6678.697,1373.874 6625.344,1338.655 6591.239,1291.072C6575.853,1268.741 6500.941,1148.189 6493.027,1132.383C6472.742,1100.212 6449.346,1074.751 6421.091,1073.145L6421.091,1064.975C6422.251,1064.975 6438.979,1065.299 6459.431,1064.772C6505.679,1063.84 6564.646,1047.528 6585.757,969.312C6588.876,957.66 6590.994,939.465 6590.385,920.861C6587.679,839.526 6545.86,794.115 6483.636,791.435C6447.449,789.562 6402.6,791.292 6391.856,790.897L6391.856,1309.955L6391.863,1309.955C6392.441,1340.452 6417.7,1365.219 6448.203,1365.195L6459.246,1365.177L6459.388,1373.963L6236.496,1373.963L6236.635,1365.177C6237.137,1365.177 6247.24,1365.195 6247.742,1365.195C6278.058,1365.187 6303.203,1340.692 6304.004,1310.386L6304.004,822.954L6303.975,822.954C6303.413,792.501 6278.218,767.752 6247.76,767.732C6247.23,767.732 6237.119,767.739 6236.61,767.732L6236.478,758.946L6306.549,758.946L6306.549,758.988L6499.994,758.988C6606.48,758.988 6687.035,813.73 6687.035,924.328C6687.035,1004.804 6630.798,1087.51 6540.047,1091.593C6566.402,1101.707 6595.878,1133.173 6613.913,1159.987C6615.013,1161.746 6681.26,1259.769 6714.892,1298.612L6714.874,1298.584Z" style="fill:rgb(242,195,59);fill-rule:nonzero;"/>
        <path d="M7699.981,1366.522L7699.981,1374.941L7488.099,1374.941L7488.099,1366.992L7501.221,1366.992C7519.352,1366.967 7534.041,1349.196 7534.041,1331.047C7534.042,1329.817 7533.974,1328.588 7533.838,1327.366L7533.966,1327.366L7498.331,960.978L7328.812,1299.926C7328.812,1299.926 7302.105,1351.488 7298.442,1388.864L7290.507,1388.864L7290.507,1388.847L7074.833,965.577L7039.387,1327.366L7039.394,1327.366C7039.252,1328.588 7039.178,1329.817 7039.173,1331.047C7039.173,1349.195 7053.861,1366.967 7072.014,1366.992L7085.125,1366.992L7085.125,1374.941L6916.564,1374.941L6916.564,1366.522L6929.989,1366.529C6960.159,1366.529 6987.109,1347.056 6991.419,1313.774L6991.455,1313.774L7057.443,773.612L7065.243,773.612L7310.215,1247.138L7549.42,773.866L7557.117,773.866L7625.151,1313.774L7625.169,1313.774C7629.911,1347.056 7656.44,1366.529 7686.55,1366.529L7699.981,1366.522Z" style="fill:white;fill-rule:nonzero;"/>
        <path d="M8402.477,1366.512L8402.477,1374.934L8180.427,1374.934L8180.427,1366.59L8187.832,1366.59C8209.576,1366.59 8232.584,1347.427 8219.868,1313.721L8220.114,1313.721L8171.246,1186.491L7956.645,1186.491L7905.506,1313.721L7905.666,1313.721C7892.736,1347.427 7916.007,1366.59 7937.752,1366.59L7945.156,1366.59L7945.156,1374.935L7771.003,1374.935L7771.003,1366.512L7778.582,1366.512C7803.413,1366.512 7833.456,1351.816 7850.939,1316.537L8043.771,867.949C8046.245,862.676 8078.328,792.477 8079.168,771.491L8086.747,771.491L8322.325,1315.341C8339.907,1351.489 8370.053,1366.512 8395.429,1366.512L8402.477,1366.512ZM7968.485,1157.011L8159.919,1157.011L8066.377,913.445L7968.485,1157.011Z" style="fill:white;fill-rule:nonzero;"/>
        <path d="M9086.091,793.808L9070.57,793.801C9042.67,793.799 9019.486,816.253 9018.598,844.139L9018.598,1279.285C9018.704,1315.261 9021.553,1351.176 9027.12,1386.718L9019.48,1386.718L8573.623,933.776L8574.054,1315.988C8574.843,1343.944 8598.051,1366.513 8626.019,1366.522C8626.143,1366.522 8641.437,1366.511 8641.554,1366.504L8641.69,1374.927L8434.524,1374.927L8434.649,1366.504C8434.777,1366.511 8450.053,1366.522 8450.181,1366.522C8478.327,1366.513 8501.619,1343.656 8502.16,1315.515L8502.16,877.97C8502.16,818.369 8493.563,772.769 8493.563,772.769L8501.868,772.762L8502.936,773.983L8946.654,1225.544L8946.629,844.83L8946.622,844.83C8946.099,816.676 8922.799,793.799 8894.64,793.791L8879.1,793.802L8878.965,785.379L9086.219,785.379L9086.091,793.808Z" style="fill:white;fill-rule:nonzero;"/>
        <path d="M9368.115,1374.941L9154.379,1374.941L9154.503,1366.522L9165.158,1366.536C9194.378,1366.53 9218.557,1342.793 9219.102,1313.578L9219.102,846.364C9218.382,817.288 9194.268,793.761 9165.183,793.759L9154.539,793.766L9154.403,785.343L9221.58,785.343L9221.58,785.386L9300.925,785.386L9300.925,785.343L9368.098,785.343L9367.962,793.766L9357.307,793.759C9328.29,793.765 9304.21,817.181 9303.392,846.186L9303.392,1313.571C9303.936,1342.786 9328.116,1366.524 9357.336,1366.529L9367.987,1366.512L9368.115,1374.941Z" style="fill:white;fill-rule:nonzero;"/>
        <path d="M10019.988,1366.512L10019.988,1374.934L9797.939,1374.934L9797.939,1366.59L9805.34,1366.59C9827.088,1366.59 9850.096,1347.427 9837.38,1313.721L9837.626,1313.721L9788.758,1186.491L9574.156,1186.491L9523.017,1313.721L9523.177,1313.721C9510.247,1347.427 9533.519,1366.59 9555.263,1366.59L9562.668,1366.59L9562.668,1374.935L9388.514,1374.935L9388.514,1366.512L9396.093,1366.512C9420.924,1366.512 9450.967,1351.816 9468.45,1316.537L9661.282,867.949C9663.757,862.676 9695.839,792.477 9696.679,771.491L9704.258,771.491L9939.836,1315.341C9957.419,1351.489 9987.564,1366.512 10012.94,1366.512L10019.988,1366.512ZM9585.996,1157.011L9777.43,1157.011L9683.888,913.445L9585.996,1157.011Z" style="fill:white;fill-rule:nonzero;"/>
        <path d="M5356.5,456.973L5613.615,669.45L5497.954,489.697L5356.5,456.973Z" style="fill:rgb(255,255,254);fill-rule:nonzero;"/>
        <path d="M5649.503,686.49L5523.189,490.182L5714.189,465.386L5649.503,686.49Z" style="fill:rgb(255,255,254);fill-rule:nonzero;"/>
        <path d="M5676.192,659.284L5737.731,456.927L5875.424,385.051L5676.192,659.284Z" style="fill:rgb(255,255,254);fill-rule:nonzero;"/>
        <path d="M5869.275,363.367L5730.512,437.046L5694.618,405.517L5806.349,347.001L5869.275,363.367Z" style="fill:rgb(255,255,254);fill-rule:nonzero;"/>
        <path d="M5549.412,427.602L5523.011,468L5710.405,442.18L5679.186,410.987L5549.412,427.602Z" style="fill:rgb(255,255,254);fill-rule:nonzero;"/>
        <path d="M5526.543,426.71L5501.718,466.094L5355.026,435.625L5408.636,401.13L5526.543,426.71Z" style="fill:rgb(255,255,254);fill-rule:nonzero;"/>
        <path d="M5786.462,338.617L5682.95,387.384L5541.124,409.524L5429.47,383.265L5526.363,334.298L5669.57,314.613L5786.462,338.617Z" style="fill:rgb(255,255,254);fill-rule:nonzero;"/>
        <path d="M7221.255,525.454C7221.288,534.266 7219.241,542.963 7215.283,550.836C7206.82,568.752 7190.646,583.683 7166.759,595.627C7143.632,607.388 7118.053,613.527 7092.107,613.543C7052.787,613.543 7026.037,600.106 7011.857,573.232C6986.225,594.636 6967.935,605.336 6956.988,605.332C6955.183,605.373 6953.393,604.989 6951.763,604.212C6944.297,600.228 6940.565,591.643 6940.565,578.457C6940.565,565.27 6946.039,549.096 6956.988,529.933C6967.935,510.775 6977.515,499.452 6985.729,495.967C6988.483,494.923 6991.376,494.295 6994.314,494.101C7001.528,494.101 7007.003,500.073 7010.737,512.017L7021.935,547.85C7029.149,540.14 7038.979,527.822 7051.422,510.897L7084.642,466.106C7125.45,413.103 7152.2,384.114 7164.893,379.137C7169.293,377.412 7173.977,376.526 7178.703,376.524C7182.827,376.368 7186.911,377.405 7190.461,379.511C7193.569,381.505 7195.124,383.993 7195.126,386.976C7195.126,391.455 7191.518,394.067 7184.302,394.814C7176.837,399.048 7162.591,411.428 7141.564,431.953C7120.533,452.482 7108.029,465.484 7104.052,470.958C7076.179,509.777 7050.425,539.638 7026.787,560.54C7041.962,590.652 7064.731,605.707 7095.094,605.705C7113.506,605.705 7131.795,599.919 7149.962,588.348C7168.123,576.777 7181.685,562.531 7190.647,545.61C7194.683,538.169 7196.74,529.813 7196.619,521.349C7196.619,512.39 7193.074,503.867 7185.982,495.78C7178.795,487.633 7169.59,481.517 7159.294,478.051C7154.313,477.304 7146.35,476.246 7135.405,474.878C7124.452,473.513 7118.978,471.211 7118.982,467.973C7118.996,466.696 7119.536,465.479 7120.475,464.613C7123.325,461.193 7127.595,459.264 7132.046,459.388C7134.79,459.391 7137.51,459.897 7140.071,460.881C7142.684,461.878 7144.737,462.624 7146.23,463.12C7147.723,463.621 7149.464,464.244 7151.455,464.986C7156.926,465.488 7161.654,465.737 7165.639,465.733C7182.062,465.733 7196.993,463.12 7210.43,457.894C7227.6,451.176 7238.549,441.098 7243.277,427.661C7246.263,418.953 7247.756,411.115 7247.756,404.145C7247.756,386.976 7239.42,374.16 7222.747,365.7C7208.313,358.235 7188.53,354.502 7163.4,354.502C7123.834,354.502 7088.375,361.967 7057.021,376.897C7041.094,384.363 7025.977,395.436 7011.67,410.117C6997.358,424.803 6990.204,437.369 6990.208,447.817C6990.208,455.037 6992.074,461.009 6995.807,465.733C6998.118,468.52 7000.749,471.025 7003.645,473.198C7004.888,473.945 7004.141,474.318 7001.405,474.318C6985.974,470.836 6978.26,460.509 6978.263,443.337C6978.263,426.168 6986.973,409.994 7004.392,394.814C7017.458,383.536 7032.189,374.345 7048.063,367.566C7081.656,353.138 7119.853,345.921 7162.653,345.918C7193.259,345.918 7217.645,350.397 7235.811,359.355C7256.958,369.31 7267.534,384.365 7267.538,404.519C7267.466,412.839 7265.819,421.072 7262.685,428.78C7257.46,443.711 7243.898,455.033 7222,462.747C7204.935,468.584 7187.034,471.609 7168.998,471.705C7183.678,472.452 7196.057,477.864 7206.137,487.942C7216.216,498.02 7221.255,510.524 7221.255,525.454ZM6982.743,511.644C6982.086,511.796 6981.457,512.047 6980.876,512.391C6962.458,539.021 6953.251,560.421 6953.255,576.592C6953.176,583.016 6954.854,589.342 6958.108,594.882C6958.903,596.151 6960.347,596.873 6961.84,596.748C6969.801,596.748 6985.105,585.426 7007.751,562.781L7006.631,561.288C6996.676,528.196 6988.713,511.648 6982.743,511.644L6982.743,511.644Z" style="fill:rgb(246,246,246);fill-rule:nonzero;"/>
        <path d="M7252.976,600.106C7240.285,600.106 7233.94,591.895 7233.94,575.471C7233.94,562.034 7241.281,543.433 7255.962,519.669C7270.642,495.909 7282.462,483.903 7291.421,483.649C7293.906,483.649 7296.705,484.645 7299.82,486.635C7302.928,488.63 7304.483,490.621 7304.485,492.607C7303.237,494.352 7301.744,496.28 7300.006,498.393C7298.263,500.51 7296.396,502.812 7294.407,505.298C7292.413,507.788 7289.676,511.334 7286.196,515.936C7282.708,520.543 7279.349,524.96 7276.118,529.187C7257.455,553.326 7248.124,569.936 7248.124,579.017C7248.124,588.104 7251.234,592.645 7257.455,592.641C7262.681,592.641 7269.773,589.779 7278.731,584.056C7299.633,571.12 7316.181,556.937 7328.374,541.505C7332.853,535.784 7335.901,532.922 7337.519,532.92C7339.134,532.92 7339.943,533.915 7339.945,535.906C7339.945,537.9 7337.083,541.882 7331.36,547.85C7325.633,553.822 7321.091,558.55 7317.736,562.034C7314.377,565.521 7312.075,567.823 7310.831,568.939C7309.582,570.059 7307.281,572.174 7303.925,575.285C7301.501,577.606 7298.947,579.787 7296.274,581.817C7294.53,583.065 7292.041,584.931 7288.809,587.415C7286.16,589.538 7283.28,591.353 7280.224,592.828C7277.733,593.948 7274.872,595.254 7271.639,596.747C7265.709,599.118 7259.36,600.261 7252.976,600.106ZM7331.173,447.257C7334.533,449.625 7336.212,452.424 7336.212,455.656C7336.212,458.892 7334.657,461.692 7331.546,464.054C7328.621,466.355 7325.004,467.604 7321.282,467.599C7317.467,467.57 7313.801,466.103 7311.018,463.494C7307.903,460.759 7306.347,457.648 7306.352,454.162C7306.352,447.199 7311.08,443.715 7320.536,443.711C7324.366,443.744 7328.09,444.985 7331.173,447.257Z" style="fill:rgb(246,246,246);fill-rule:nonzero;"/>
        <path d="M7392.947,494.474C7392.947,495.967 7383.118,513.635 7363.459,547.477C7344.295,584.056 7329.489,609.562 7319.042,623.994C7296.401,656.34 7275.126,672.514 7255.215,672.518C7247.688,672.497 7240.385,669.931 7234.499,665.24C7228.153,660.387 7224.981,655.535 7224.981,650.682C7224.981,645.83 7226.101,643.404 7228.34,643.404C7228.591,643.404 7231.141,646.577 7235.992,652.922C7240.844,659.267 7246.505,662.44 7252.975,662.44C7272.886,662.44 7295.531,639.92 7320.908,594.881C7336.585,566.764 7347.285,543.995 7353.008,526.575C7348.125,531.951 7342.954,537.06 7337.518,541.878C7330.175,548.597 7325.696,551.956 7324.081,551.956C7322.465,551.956 7321.654,551.583 7321.654,550.836C7321.654,548.596 7323.645,545.734 7327.627,542.251C7331.604,538.769 7336.954,532.175 7343.677,522.468C7350.395,512.764 7354.377,507.414 7355.621,506.418L7367.938,493.354C7372.913,488.63 7378.325,486.266 7384.175,486.263C7390.019,486.263 7392.943,489 7392.947,494.474ZM7410.677,446.697C7414.036,449.187 7415.716,451.987 7415.716,455.095C7415.716,458.21 7414.161,460.947 7411.05,463.307C7408.125,465.608 7404.508,466.858 7400.786,466.853C7397.003,466.835 7393.353,465.441 7390.521,462.934C7387.407,460.321 7385.852,457.273 7385.855,453.789C7385.855,446.575 7390.583,442.966 7400.039,442.965C7403.897,443.01 7407.636,444.322 7410.676,446.697L7410.677,446.697Z" style="fill:rgb(246,246,246);fill-rule:nonzero;"/>
        <path d="M7496.335,516.869C7496.335,525.583 7487.999,540.14 7471.327,560.541C7451.667,584.68 7434.87,596.749 7420.937,596.747L7414.965,596.747C7408.491,596.747 7403.39,593.388 7399.662,586.669C7396.687,581.985 7395.131,576.54 7395.183,570.992C7395.183,556.062 7406.069,535.097 7427.843,508.098C7449.614,481.101 7467.22,467.601 7480.659,467.599C7493.349,467.599 7499.695,474.318 7499.695,487.756C7499.556,492.289 7498.93,496.793 7497.828,501.193C7498.074,501.939 7500.438,502.313 7504.921,502.313C7509.4,502.313 7516.243,499.949 7525.45,495.22C7525.199,499.455 7515.37,505.551 7495.962,513.51C7496.221,514.611 7496.346,515.739 7496.335,516.869ZM7472.074,497.46C7463.611,497.46 7451.605,507.414 7436.054,527.321C7420.499,547.231 7412.723,561.913 7412.725,571.365C7412.725,580.825 7415.711,585.553 7421.683,585.549C7432.379,585.549 7445.941,575.844 7462.368,556.435C7478.792,537.025 7487.003,523.09 7487.003,514.63C7483.02,512.39 7478.044,506.667 7472.074,497.46Z" style="fill:rgb(246,246,246);fill-rule:nonzero;"/>
        <path d="M7608.309,598.24C7605.647,598.567 7602.965,598.691 7600.284,598.613C7596.178,598.613 7592.072,596.996 7587.967,593.761C7584.015,590.837 7581.716,586.172 7581.808,581.257C7581.915,575.49 7582.858,569.769 7584.608,564.273C7586.474,558.056 7587.78,553.329 7588.527,550.09C7559.908,583.438 7537.513,600.11 7521.34,600.106C7511.134,600.106 7505.535,593.761 7504.544,581.07L7504.544,578.457C7504.544,567.761 7511.013,553.328 7523.953,535.159C7516.184,542.191 7508.831,549.669 7501.931,557.555C7500.947,558.547 7499.595,559.088 7498.198,559.048C7497.207,559.048 7496.705,558.429 7496.705,557.181C7496.705,555.939 7497.825,553.824 7500.065,550.836L7551.574,490.368C7558.042,482.903 7564.636,479.17 7571.357,479.171C7578.075,479.171 7581.435,481.41 7581.435,485.889C7581.385,487.744 7580.575,489.5 7579.196,490.741C7569.24,499.95 7556.735,515.254 7541.683,536.652C7526.624,558.056 7519.097,573.858 7519.101,584.056C7519.101,588.535 7520.594,590.774 7523.58,590.775C7534.031,590.775 7549.21,580.448 7569.117,559.795C7576.081,552.831 7589.021,537.465 7607.936,513.697C7626.844,489.937 7639.286,478.055 7645.262,478.051C7654.22,478.051 7658.699,481.535 7658.699,488.503C7658.699,490.993 7653.474,498.209 7643.023,510.152C7628.838,527.321 7618.014,541.319 7610.549,552.143C7603.083,562.967 7599.35,571.739 7599.351,578.458C7599.351,585.176 7601.218,588.535 7604.951,588.535C7607.023,588.457 7609.057,587.948 7610.923,587.043C7628.092,579.577 7648.622,562.159 7672.51,534.786C7674.003,533.049 7675.496,532.174 7676.989,532.174C7678.482,532.174 7679.229,532.984 7679.229,534.6C7679.229,536.221 7678.358,538.025 7676.616,540.012C7664.965,553.404 7652.366,565.94 7638.916,577.525C7624.482,590.092 7614.279,596.997 7608.309,598.24Z" style="fill:rgb(246,246,246);fill-rule:nonzero;"/>
        <path d="M7759.847,475.811L7813.596,475.065C7814.343,475.566 7814.716,475.94 7814.716,476.185C7814.716,478.425 7799.225,481.535 7768.245,485.516C7737.265,489.5 7720.53,491.864 7718.042,492.608C7713.312,496.842 7704.603,509.471 7691.914,530.494C7679.224,551.525 7672.878,566.89 7672.878,576.591C7672.878,585.8 7679.223,590.404 7691.914,590.402C7697.887,590.402 7705.725,588.536 7715.43,584.803C7725.134,581.07 7732.599,577.587 7737.825,574.352C7751.758,565.644 7766.688,552.829 7782.616,535.906C7786.098,532.424 7788.461,530.683 7789.708,530.68C7790.454,530.68 7790.827,531.427 7790.827,532.92C7790.827,534.414 7788.961,537.4 7785.228,541.878C7773.033,557.15 7758.252,570.163 7741.557,580.324C7722.148,592.269 7703.61,598.241 7685.942,598.241C7678.225,598.241 7671.942,596.561 7667.092,593.202C7662.24,589.842 7659.813,583.061 7659.813,572.859C7659.813,562.659 7664.292,548.662 7673.25,530.868C7682.208,513.08 7689.052,499.829 7693.78,491.116C7690.84,491.796 7687.838,492.172 7684.822,492.236C7677.601,492.236 7673.993,489.374 7673.997,483.651C7673.997,479.422 7676.984,476.436 7682.956,474.693C7684.083,474.654 7685.206,474.529 7686.315,474.319L7707.963,474.319C7712.443,468.598 7717.544,462.004 7723.267,454.537C7730.231,445.579 7734.959,441.1 7737.451,441.1C7739.936,441.1 7743.047,442.095 7746.783,444.085C7750.515,446.08 7752.381,448.444 7752.381,451.177C7752.381,453.918 7746.409,462.006 7734.465,475.439C7740.933,475.689 7749.394,475.813 7759.847,475.811Z" style="fill:rgb(246,246,246);fill-rule:nonzero;"/>
        <path d="M7792.319,600.853C7789.787,600.884 7787.266,600.506 7784.855,599.733C7768.933,595.254 7760.97,586.296 7760.966,572.858C7760.966,555.444 7771.915,535.288 7793.812,512.39C7815.706,489.499 7835.364,478.053 7852.787,478.051C7858.509,478.051 7863.175,479.606 7866.784,482.717C7870.227,485.486 7872.222,489.683 7872.196,494.101C7872.196,508.04 7861.683,521.353 7840.656,534.039C7819.625,546.73 7802.517,553.076 7789.333,553.076C7787.562,553.11 7785.798,552.858 7784.107,552.329C7780.436,558.818 7778.506,566.149 7778.509,573.605C7778.509,586.546 7784.668,593.016 7796.985,593.015C7809.303,593.015 7825.29,584.679 7844.948,568.007C7859.339,556.604 7872.365,543.578 7883.768,529.188C7886.007,526.201 7887.935,524.708 7889.553,524.709C7891.169,524.709 7891.978,525.455 7891.98,526.948C7891.98,528.441 7890.984,530.556 7888.993,533.293C7875.23,551.28 7858.878,567.129 7840.47,580.324C7821.556,594.012 7805.506,600.855 7792.319,600.853ZM7862.865,493.354C7862.865,490.368 7859.692,488.875 7853.347,488.875C7847.001,488.875 7837.981,493.727 7826.286,503.432C7810.609,516.374 7798.416,529.935 7789.707,544.117C7791.273,544.629 7792.912,544.881 7794.559,544.864C7804.013,544.864 7816.641,539.825 7832.444,529.747C7848.244,519.669 7858.136,508.658 7862.118,496.714C7862.577,495.651 7862.83,494.511 7862.865,493.354Z" style="fill:rgb(246,246,246);fill-rule:nonzero;"/>
        <path d="M7945.351,597.866C7926.688,597.866 7917.356,587.54 7917.356,566.886C7917.356,556.435 7920.094,544.988 7925.568,532.547C7931.038,520.107 7937.01,509.655 7943.484,501.193C7941.883,501.472 7940.258,501.597 7938.632,501.566C7932.66,501.566 7927.684,497.336 7923.702,488.875L7896.081,524.708C7880.648,543.872 7871.69,553.453 7869.206,553.449C7867.964,553.449 7867.34,552.953 7867.34,551.956C7867.34,549.471 7869.455,545.863 7873.685,541.132C7895.334,516.001 7910.637,494.725 7919.595,477.304C7925.317,455.656 7932.533,444.831 7941.245,444.831C7946.965,444.831 7949.827,447.319 7949.83,452.296C7949.83,457.277 7946.719,463.622 7940.498,471.332L7931.54,483.277C7931.54,488.502 7935.397,491.115 7943.111,491.115C7947.589,491.115 7952.566,489.498 7958.041,486.262L7967.746,480.29C7968.959,479.953 7970.222,479.827 7971.478,479.917C7973.468,479.917 7975.583,481.161 7977.824,483.65C7980.063,486.14 7980.81,488.38 7980.063,490.368L7954.308,522.842C7938.381,543.248 7930.418,559.361 7930.42,571.178C7930.42,583 7935.894,588.91 7946.844,588.908C7958.286,588.908 7972.345,582.812 7989.021,570.619C7998.898,563.47 8008.027,555.342 8016.269,546.357C8023.979,537.399 8028.209,532.919 8028.959,532.92C8030.697,532.92 8031.572,533.853 8031.572,535.719C8031.572,537.585 8030.452,539.767 8028.213,542.251L8016.269,555.688C8009.271,562.909 8001.789,569.644 7993.873,575.844C7974.214,590.53 7958.039,597.87 7945.351,597.866Z" style="fill:rgb(246,246,246);fill-rule:nonzero;"/>
        <path d="M8029.706,600.106C8017.015,600.106 8010.669,591.895 8010.67,575.471C8010.67,562.034 8018.011,543.433 8032.692,519.669C8047.371,495.909 8059.191,483.903 8068.151,483.649C8070.636,483.649 8073.435,484.645 8076.55,486.635C8079.658,488.63 8081.214,490.621 8081.216,492.607C8079.968,494.352 8078.474,496.28 8076.736,498.393C8074.992,500.51 8073.126,502.812 8071.137,505.298C8069.142,507.788 8066.405,511.334 8062.925,515.936C8059.438,520.543 8056.079,524.96 8052.847,529.187C8034.184,553.326 8024.853,569.936 8024.853,579.017C8024.853,588.104 8027.963,592.645 8034.184,592.641C8039.41,592.641 8046.502,589.779 8055.46,584.056C8076.363,571.12 8092.91,556.937 8105.103,541.505C8109.582,535.784 8112.631,532.922 8114.249,532.92C8115.864,532.92 8116.672,533.915 8116.674,535.906C8116.674,537.9 8113.813,541.882 8108.089,547.85C8102.362,553.822 8097.821,558.55 8094.465,562.034C8091.106,565.521 8088.804,567.823 8087.56,568.939C8086.312,570.059 8084.01,572.174 8080.655,575.285C8078.231,577.606 8075.676,579.787 8073.003,581.817C8071.259,583.065 8068.771,584.931 8065.539,587.415C8062.89,589.537 8060.01,591.353 8056.954,592.828C8054.462,593.948 8051.601,595.254 8048.369,596.747C8042.439,599.118 8036.09,600.261 8029.706,600.106ZM8107.903,447.257C8111.263,449.625 8112.942,452.424 8112.942,455.656C8112.942,458.892 8111.387,461.692 8108.276,464.054C8105.351,466.355 8101.734,467.604 8098.012,467.599C8094.197,467.57 8090.53,466.103 8087.747,463.494C8084.633,460.759 8083.078,457.648 8083.082,454.162C8083.082,447.199 8087.81,443.715 8097.266,443.711C8101.096,443.744 8104.82,444.985 8107.903,447.257Z" style="fill:rgb(246,246,246);fill-rule:nonzero;"/>
        <path d="M8119.66,600.853C8117.128,600.884 8114.607,600.506 8112.195,599.733C8096.273,595.254 8088.31,586.296 8088.306,572.858C8088.306,555.444 8099.255,535.288 8121.153,512.39C8143.046,489.499 8162.705,478.053 8180.128,478.051C8185.849,478.051 8190.515,479.606 8194.125,482.717C8197.567,485.486 8199.562,489.683 8199.537,494.101C8199.537,508.04 8189.024,521.353 8167.997,534.039C8146.966,546.73 8129.858,553.076 8116.674,553.076C8114.903,553.11 8113.138,552.858 8111.448,552.329C8107.776,558.818 8105.847,566.149 8105.849,573.605C8105.849,586.546 8112.008,593.016 8124.326,593.015C8136.643,593.015 8152.631,584.679 8172.289,568.007C8186.68,556.604 8199.706,543.578 8211.108,529.188C8213.348,526.201 8215.276,524.708 8216.893,524.709C8218.51,524.709 8219.318,525.455 8219.32,526.948C8219.32,528.441 8218.325,530.556 8216.334,533.293C8202.57,551.28 8186.218,567.129 8167.81,580.324C8148.897,594.012 8132.847,600.855 8119.66,600.853ZM8190.206,493.354C8190.206,490.368 8187.033,488.875 8180.687,488.875C8174.343,488.875 8165.323,493.728 8153.627,503.432C8137.95,516.374 8125.757,529.935 8117.048,544.117C8118.614,544.629 8120.253,544.881 8121.9,544.864C8131.354,544.864 8143.982,539.825 8159.785,529.747C8175.585,519.669 8185.477,508.658 8189.459,496.714C8189.918,495.651 8190.171,494.511 8190.206,493.354L8190.206,493.354Z" style="fill:rgb(246,246,246);fill-rule:nonzero;"/>
        <path d="M8359.485,507.069L9681.713,507.069" style="fill:none;fill-rule:nonzero;stroke:white;stroke-width:1px;"/>
        <path d="M5916.173,507.069L6829.918,507.069" style="fill:none;fill-rule:nonzero;stroke:white;stroke-width:1px;"/>
    </g>
</svg>
